<svg xmlns="http://www.w3.org/2000/svg" width="116.607" height="80.791" viewBox="0 0 116.607 80.791">
  <g id="Group_1527" data-name="Group 1527" transform="translate(0 0)">
    <g id="Group_1526" data-name="Group 1526" transform="translate(0 0)">
      <path id="Path_1092" data-name="Path 1092" d="M-22.2,0-45.042,13.721l21.409,12.857a2.794,2.794,0,0,0,2.877,0l19.813-11.9a1.117,1.117,0,0,0,0-1.916Z" transform="translate(45.042 53.815)" fill="#0bb6a0"/>
      <g id="Group_1525" data-name="Group 1525" transform="translate(0)">
        <path id="Path_1093" data-name="Path 1093" d="M-22.2-12.291-45.042,1.43V-23.544a1.4,1.4,0,0,1,2.116-1.2Z" transform="translate(67.889 24.943)" fill="#0bb6a0"/>
        <g id="Group_1524" data-name="Group 1524" transform="translate(0 12.652)">
          <path id="Path_1094" data-name="Path 1094" d="M-2.633-25.077h0a5.588,5.588,0,0,0-2.711,4.79V3.992L37.639-21.821a5.586,5.586,0,0,0,2.711-4.789v-24.28Z" transform="translate(5.344 50.891)" fill="#6acfb9"/>
          <g id="Group_1523" data-name="Group 1523" transform="translate(58.488 1.909)">
            <path id="Path_1095" data-name="Path 1095" d="M-5.765-6.049h0c-1.886,0-2.641,1.012-2.641,2.813,0,1.767.737,2.762,2.641,2.762,1.87,0,2.624-1,2.624-2.762C-3.141-5.054-3.878-6.049-5.765-6.049Zm5.78,8.2H-3.278V1.464h-.034a4.685,4.685,0,0,1-2.882.84c-3.739,0-5.506-2.35-5.506-5.54,0-3.224,1.733-5.592,5.506-5.592a4.678,4.678,0,0,1,2.882.858h.034v-4.305H.015Z" transform="translate(11.7 12.275)" fill="#fff"/>
            <g id="Group_1522" data-name="Group 1522" transform="translate(8.379 3.43)">
              <path id="Path_1096" data-name="Path 1096" d="M-6.9-2.732h-.943c-2.024,0-2.864.978-2.864,2.762V5.38H-14V-5.425h3.293v1.287h.034a3.472,3.472,0,0,1,3.1-1.407H-6.9Z" transform="translate(19.909 5.597)" fill="#fff"/>
              <g id="Group_1521" data-name="Group 1521" transform="translate(0)">
                <path id="Path_1097" data-name="Path 1097" d="M-5.782-2.716h0c-1.853,0-2.659,1.063-2.659,2.779,0,1.7.823,2.8,2.676,2.8s2.658-1.081,2.658-2.8C-3.107-1.636-3.93-2.716-5.782-2.716Zm0,8.353h0c-3.963,0-5.952-2.452-5.952-5.574s1.989-5.575,5.952-5.575C-1.8-5.512.187-3.076.187.063.187,3.167-1.837,5.637-5.782,5.637Z" transform="translate(25.791 5.512)" fill="#fff"/>
                <g id="Group_1520" data-name="Group 1520" transform="translate(0 0.017)">
                  <path id="Path_1098" data-name="Path 1098" d="M-5.632-2.7h0c-1.886,0-2.641.994-2.641,2.761,0,1.8.737,2.8,2.624,2.8s2.641-1.012,2.641-2.8S-3.745-2.7-5.632-2.7Zm.412,8.37h0A4.538,4.538,0,0,1-8.1,4.8h-.034V9.118h-3.293V-5.324h3.293v.686H-8.1a4.8,4.8,0,0,1,2.882-.84C-1.463-5.479.286-3.112.286.079.286,3.286-1.429,5.67-5.22,5.67Z" transform="translate(39.464 5.479)" fill="#fff"/>
                  <g id="Group_1519" data-name="Group 1519" transform="translate(0 14.623)">
                    <path id="Path_1099" data-name="Path 1099" d="M-3.2-3.016H-.042V-.46H-3.2V4.051c0,.789.412,1.132.943,1.132a2,2,0,0,0,1.51-.806l1.852,1.87A5.19,5.19,0,0,1-2.667,7.961c-2.624,0-3.825-1.286-3.825-3.894V-6.12H-3.2Z" transform="translate(6.492 6.12)" fill="#fff"/>
                    <g id="Group_1518" data-name="Group 1518" transform="translate(0.034 2.932)">
                      <path id="Path_1100" data-name="Path 1100" d="M-5.782-2.716h0c-1.852,0-2.658,1.063-2.658,2.779,0,1.7.823,2.8,2.676,2.8s2.658-1.08,2.658-2.8C-3.106-1.636-3.93-2.716-5.782-2.716Zm0,8.353h0c-3.963,0-5.952-2.452-5.952-5.574s1.989-5.575,5.952-5.575C-1.8-5.512.187-3.076.187.063.187,3.167-1.837,5.637-5.782,5.637Z" transform="translate(20.207 5.512)" fill="#fff"/>
                      <g id="Group_1517" data-name="Group 1517" transform="translate(0 11.352)">
                        <path id="Path_1101" data-name="Path 1101" d="M-5.632-2.7h0c-1.886,0-2.641.994-2.641,2.761,0,1.8.738,2.8,2.624,2.8s2.642-1.012,2.642-2.8S-3.745-2.7-5.632-2.7Zm.412,8.37h0A4.538,4.538,0,0,1-8.1,4.8h-.034V9.118h-3.293V-5.324h3.293v.686H-8.1a4.8,4.8,0,0,1,2.882-.84C-1.464-5.479.286-3.112.286.079.286,3.286-1.43,5.67-5.22,5.67Z" transform="translate(11.429 9.593)" fill="#fff"/>
                        <g id="Group_1516" data-name="Group 1516" transform="translate(13.773)">
                          <path id="Path_1102" data-name="Path 1102" d="M-6.9-2.732h-.943c-2.024,0-2.864.977-2.864,2.762V5.38H-14V-5.425h3.293v1.287h.034a3.473,3.473,0,0,1,3.1-1.407H-6.9Z" transform="translate(13.999 9.694)" fill="#fff"/>
                          <g id="Group_1515" data-name="Group 1515" transform="translate(8.593)">
                            <path id="Path_1103" data-name="Path 1103" d="M544.4-272.072h-3.293v-10.806H544.4Zm-1.646-11.576h0a1.686,1.686,0,0,1-1.715-1.749,1.676,1.676,0,0,1,1.715-1.749,1.68,1.68,0,0,1,1.732,1.749A1.69,1.69,0,0,1,542.757-283.648Z" transform="translate(-541.042 287.146)" fill="#fff"/>
                            <g id="Group_1514" data-name="Group 1514" transform="translate(5.952 1.164)">
                              <path id="Path_1104" data-name="Path 1104" d="M-10.881-10.664h-3.293v-6.4c0-1.149-.24-1.8-2.161-1.8-1.492,0-2.452.7-2.452,1.921v6.278h-3.293V-21.486h3.293v.909h.034a4.606,4.606,0,0,1,3.087-1.064c2.968,0,4.786,1.613,4.786,4.3Z" transform="translate(22.081 24.574)" fill="#fff"/>
                              <g id="Group_1513" data-name="Group 1513" transform="translate(13.79)">
                                <path id="Path_1105" data-name="Path 1105" d="M-3.2-5.5V-.988c0,.789.412,1.132.943,1.132A2,2,0,0,0-.746-.662L1.106,1.207A5.191,5.191,0,0,1-2.667,2.923c-2.624,0-3.825-1.286-3.825-3.894V-11.159H-3.2v3.1H-.042V-5.5Z" transform="translate(6.492 11.159)" fill="#fff"/>
                              </g>
                            </g>
                          </g>
                        </g>
                      </g>
                    </g>
                  </g>
                </g>
              </g>
            </g>
          </g>
        </g>
      </g>
    </g>
  </g>
</svg>
